<svg width="1440" height="132" viewBox="0 0 1440 132" fill="none" xmlns="http://www.w3.org/2000/svg">
<path fill-rule="evenodd" clip-rule="evenodd" d="M42.1385 100.922H20.6809L12.8137 131.492H-12.9315L-5.0644 100.922H-24.4935V77.9402H0.868961L7.55898 52.0465H-11.6866V29.0644H13.4922L20.8105 0.507812H46.7384L39.4201 29.0644H60.6951L68.0133 0.507812H94.1242L86.806 29.0644H106.053V52.0465H80.6903L74.0003 77.9402H93.2458V100.922H68.0667L60.1995 131.492H34.2713L42.1385 100.922ZM26.4851 78.2672H48.2768L55.0742 51.5114H33.2825L26.4851 78.2672ZM122.754 131.492V0.507812H177.112C220.886 0.507812 248.872 24.7196 248.872 66.0001C248.872 106.687 220.498 131.492 177.112 131.492H122.754ZM153.659 29.2944V104.928H175.611C200.151 104.928 215.752 90.5686 215.752 67.111C215.752 43.0657 200.523 29.2944 175.611 29.2944H153.659ZM363.92 78.3518L393.149 131.492H359.44L332.16 82.0675H297.502V131.492H265.573V0.507812H341.734C371.292 0.507812 388.251 15.0835 388.251 41.8368C388.251 59.7232 379.622 72.3713 363.92 78.3518ZM297.585 28.1836V54.9394H338.243C349.671 54.9394 355.25 50.5779 355.25 41.8373C355.25 32.3229 349.914 28.1836 338.243 28.1836H297.585ZM409.499 131.492V0.507812H441.511V131.492H409.499ZM496.188 42.8179V131.127H464.855V0.507812H500.862L561.478 78.9366V0.507812H592.08V131.492H566.123L496.188 42.8179ZM647.291 73.7921V131.492H615.424V0.507812H647.291V56.0305L705.568 0.507812H747.147L681.09 63.6259L750.024 131.492H706.472L647.291 73.7921ZM840.576 83.3531L873.17 0.507812H917.574V131.31H886.55V35.3517L849.34 131.492H827.784L791.124 36.1008V131.31H761.564V0.507812H807.981L840.576 83.3531ZM970.937 27.1509V49.5666H1017.4V76.7589H970.937V103.568H1055.96V131.492H938.704V0.507812H1048.8V27.1509H970.937ZM1144.38 28.6154V131.492H1112.67V28.6154H1063.81V0.507812H1193.25V28.6154H1144.38ZM1284.99 28.6154V131.492H1253.28V28.6154H1204.41V0.507812H1333.85V28.6154H1284.99ZM1421.15 109.008H1360.15L1350.48 131.492H1318.18L1375.36 0.507812H1407.76L1464.76 131.492H1430.82L1421.15 109.008ZM1371.76 82.7106H1410.07L1390.92 38.9374L1371.76 82.7106Z" stroke="#14C5C4"/>
</svg>
